<svg xmlns="http://www.w3.org/2000/svg" width="1024" height="1024" viewBox="0 0 1024 1024">
  <rect x="72" y="72" width="880" height="880" rx="190" fill="#111B2A"/>
  <g transform="translate(262,240) scale(0.60)">
    <path d="M 705.00,363.00 L 645.00,378.00 L 612.00,393.00 L 579.00,417.00 L 585.00,435.00 L 609.00,417.00 L 633.00,405.00 L 687.00,387.00 L 693.00,396.00 L 693.00,471.00 L 675.00,537.00 L 633.00,558.00 L 606.00,579.00 L 585.00,600.00 L 558.00,639.00 L 531.00,702.00 L 534.00,717.00 L 612.00,717.00 L 615.00,714.00 L 630.00,714.00 L 672.00,702.00 L 708.00,684.00 L 738.00,663.00 L 780.00,621.00 L 810.00,579.00 L 828.00,540.00 L 825.00,534.00 L 798.00,528.00 L 711.00,528.00 L 708.00,531.00 L 699.00,528.00 L 711.00,483.00 L 711.00,459.00 L 714.00,456.00 L 714.00,405.00 L 711.00,402.00 L 711.00,378.00 Z M 798.00,555.00 L 765.00,606.00 L 723.00,648.00 L 693.00,669.00 L 648.00,690.00 L 615.00,699.00 L 579.00,702.00 L 576.00,705.00 L 561.00,705.00 L 546.00,699.00 L 558.00,669.00 L 582.00,633.00 L 612.00,600.00 L 654.00,570.00 L 672.00,561.00 L 717.00,549.00 L 768.00,546.00 L 771.00,549.00 L 792.00,549.00 Z M 273.00,363.00 L 270.00,393.00 L 267.00,396.00 L 267.00,468.00 L 282.00,528.00 L 273.00,531.00 L 270.00,528.00 L 216.00,525.00 L 213.00,528.00 L 168.00,531.00 L 156.00,534.00 L 150.00,540.00 L 168.00,576.00 L 213.00,636.00 L 246.00,666.00 L 282.00,690.00 L 336.00,711.00 L 366.00,714.00 L 369.00,717.00 L 447.00,717.00 L 450.00,714.00 L 447.00,687.00 L 417.00,627.00 L 399.00,603.00 L 369.00,573.00 L 339.00,552.00 L 312.00,543.00 L 306.00,537.00 L 294.00,504.00 L 288.00,474.00 L 285.00,426.00 L 288.00,423.00 L 288.00,393.00 L 294.00,387.00 L 336.00,399.00 L 372.00,417.00 L 396.00,435.00 L 402.00,417.00 L 375.00,396.00 L 330.00,375.00 L 300.00,366.00 Z M 180.00,552.00 L 207.00,546.00 L 246.00,546.00 L 294.00,555.00 L 333.00,573.00 L 366.00,597.00 L 402.00,636.00 L 420.00,663.00 L 435.00,699.00 L 429.00,705.00 L 405.00,705.00 L 402.00,702.00 L 381.00,702.00 L 351.00,696.00 L 288.00,669.00 L 261.00,651.00 L 219.00,612.00 L 192.00,576.00 Z M 489.00,342.00 L 438.00,399.00 L 417.00,435.00 L 402.00,483.00 L 402.00,513.00 L 408.00,540.00 L 429.00,582.00 L 450.00,609.00 L 471.00,645.00 L 483.00,690.00 L 483.00,714.00 L 495.00,717.00 L 501.00,696.00 L 501.00,678.00 L 510.00,648.00 L 570.00,549.00 L 579.00,513.00 L 579.00,489.00 L 570.00,450.00 L 549.00,408.00 L 516.00,366.00 Z M 489.00,372.00 L 510.00,390.00 L 534.00,423.00 L 558.00,477.00 L 558.00,522.00 L 549.00,552.00 L 513.00,609.00 L 492.00,663.00 L 474.00,618.00 L 435.00,558.00 L 423.00,522.00 L 423.00,480.00 L 435.00,444.00 L 462.00,402.00 Z M 492.00,258.00 L 471.00,285.00 L 471.00,291.00 L 492.00,318.00 L 510.00,291.00 L 507.00,279.00 Z" fill="#B99B67" fill-rule="evenodd"/>
  </g>
</svg>